<mxfile host="app.diagrams.net" modified="2023-01-31T12:55:56.074Z" agent="5.0 (Windows NT 10.0; Win64; x64) AppleWebKit/537.36 (KHTML, like Gecko) Chrome/109.0.0.0 Safari/537.36" etag="cXymEZOjSTl-BicF88wA" version="20.8.13" type="github">
  <diagram name="Page-1" id="mAXdeJ2Txdj3aJyrrYEm">
    <mxGraphModel dx="1434" dy="926" grid="1" gridSize="10" guides="1" tooltips="1" connect="1" arrows="1" fold="1" page="1" pageScale="1" pageWidth="850" pageHeight="1100" math="0" shadow="0">
      <root>
        <mxCell id="0" />
        <mxCell id="1" parent="0" />
        <mxCell id="-DMaai7r8MjLLovcOKQn-2" value="" style="whiteSpace=wrap;html=1;aspect=fixed;" parent="1" vertex="1">
          <mxGeometry x="210" y="20" width="700" height="700" as="geometry" />
        </mxCell>
        <mxCell id="-DMaai7r8MjLLovcOKQn-39" style="edgeStyle=none;rounded=0;orthogonalLoop=1;jettySize=auto;html=1;" parent="1" source="-DMaai7r8MjLLovcOKQn-1" target="-DMaai7r8MjLLovcOKQn-4" edge="1">
          <mxGeometry relative="1" as="geometry" />
        </mxCell>
        <mxCell id="-DMaai7r8MjLLovcOKQn-40" style="edgeStyle=none;rounded=0;orthogonalLoop=1;jettySize=auto;html=1;entryX=0;entryY=0.5;entryDx=0;entryDy=0;" parent="1" source="-DMaai7r8MjLLovcOKQn-1" target="-DMaai7r8MjLLovcOKQn-5" edge="1">
          <mxGeometry relative="1" as="geometry" />
        </mxCell>
        <mxCell id="-DMaai7r8MjLLovcOKQn-41" style="edgeStyle=none;rounded=0;orthogonalLoop=1;jettySize=auto;html=1;" parent="1" source="-DMaai7r8MjLLovcOKQn-1" target="-DMaai7r8MjLLovcOKQn-6" edge="1">
          <mxGeometry relative="1" as="geometry" />
        </mxCell>
        <mxCell id="-DMaai7r8MjLLovcOKQn-1" value="Client Code&lt;br&gt;" style="shape=umlActor;verticalLabelPosition=bottom;verticalAlign=top;html=1;outlineConnect=0;" parent="1" vertex="1">
          <mxGeometry x="110" y="265" width="30" height="60" as="geometry" />
        </mxCell>
        <mxCell id="-DMaai7r8MjLLovcOKQn-3" value="&lt;b&gt;Particle System&lt;/b&gt;" style="text;html=1;strokeColor=none;fillColor=none;align=center;verticalAlign=middle;whiteSpace=wrap;rounded=0;" parent="1" vertex="1">
          <mxGeometry x="412.5" y="50" width="105" height="30" as="geometry" />
        </mxCell>
        <mxCell id="-DMaai7r8MjLLovcOKQn-37" style="edgeStyle=none;rounded=0;orthogonalLoop=1;jettySize=auto;html=1;entryX=0;entryY=0.5;entryDx=0;entryDy=0;" parent="1" source="-DMaai7r8MjLLovcOKQn-4" target="-DMaai7r8MjLLovcOKQn-15" edge="1">
          <mxGeometry relative="1" as="geometry" />
        </mxCell>
        <mxCell id="-DMaai7r8MjLLovcOKQn-38" style="edgeStyle=none;rounded=0;orthogonalLoop=1;jettySize=auto;html=1;" parent="1" source="-DMaai7r8MjLLovcOKQn-4" target="-DMaai7r8MjLLovcOKQn-16" edge="1">
          <mxGeometry relative="1" as="geometry" />
        </mxCell>
        <mxCell id="-DMaai7r8MjLLovcOKQn-4" value="Create&lt;br&gt;Particle System" style="ellipse;whiteSpace=wrap;html=1;" parent="1" vertex="1">
          <mxGeometry x="250" y="105" width="120" height="80" as="geometry" />
        </mxCell>
        <mxCell id="-DMaai7r8MjLLovcOKQn-42" style="edgeStyle=none;rounded=0;orthogonalLoop=1;jettySize=auto;html=1;entryX=0;entryY=0.5;entryDx=0;entryDy=0;" parent="1" source="-DMaai7r8MjLLovcOKQn-5" target="-DMaai7r8MjLLovcOKQn-20" edge="1">
          <mxGeometry relative="1" as="geometry" />
        </mxCell>
        <mxCell id="-DMaai7r8MjLLovcOKQn-44" style="edgeStyle=none;rounded=0;orthogonalLoop=1;jettySize=auto;html=1;entryX=0;entryY=1;entryDx=0;entryDy=0;" parent="1" source="-DMaai7r8MjLLovcOKQn-5" target="-DMaai7r8MjLLovcOKQn-16" edge="1">
          <mxGeometry relative="1" as="geometry" />
        </mxCell>
        <mxCell id="-DMaai7r8MjLLovcOKQn-45" style="edgeStyle=none;rounded=0;orthogonalLoop=1;jettySize=auto;html=1;entryX=0.223;entryY=0.9;entryDx=0;entryDy=0;entryPerimeter=0;" parent="1" source="-DMaai7r8MjLLovcOKQn-5" target="-DMaai7r8MjLLovcOKQn-15" edge="1">
          <mxGeometry relative="1" as="geometry" />
        </mxCell>
        <mxCell id="-DMaai7r8MjLLovcOKQn-57" style="edgeStyle=none;rounded=0;orthogonalLoop=1;jettySize=auto;html=1;" parent="1" source="-DMaai7r8MjLLovcOKQn-5" target="-DMaai7r8MjLLovcOKQn-53" edge="1">
          <mxGeometry relative="1" as="geometry" />
        </mxCell>
        <mxCell id="-DMaai7r8MjLLovcOKQn-58" style="edgeStyle=none;rounded=0;orthogonalLoop=1;jettySize=auto;html=1;" parent="1" source="-DMaai7r8MjLLovcOKQn-5" target="-DMaai7r8MjLLovcOKQn-50" edge="1">
          <mxGeometry relative="1" as="geometry" />
        </mxCell>
        <mxCell id="-DMaai7r8MjLLovcOKQn-63" style="edgeStyle=none;rounded=0;orthogonalLoop=1;jettySize=auto;html=1;" parent="1" source="-DMaai7r8MjLLovcOKQn-5" target="-DMaai7r8MjLLovcOKQn-61" edge="1">
          <mxGeometry relative="1" as="geometry" />
        </mxCell>
        <mxCell id="-DMaai7r8MjLLovcOKQn-64" style="edgeStyle=none;rounded=0;orthogonalLoop=1;jettySize=auto;html=1;" parent="1" source="-DMaai7r8MjLLovcOKQn-5" target="-DMaai7r8MjLLovcOKQn-62" edge="1">
          <mxGeometry relative="1" as="geometry" />
        </mxCell>
        <mxCell id="-DMaai7r8MjLLovcOKQn-5" value="Update&lt;br&gt;Particle System" style="ellipse;whiteSpace=wrap;html=1;" parent="1" vertex="1">
          <mxGeometry x="250" y="255" width="120" height="80" as="geometry" />
        </mxCell>
        <mxCell id="-DMaai7r8MjLLovcOKQn-6" value="Fetch Current&lt;br&gt;Positions" style="ellipse;whiteSpace=wrap;html=1;" parent="1" vertex="1">
          <mxGeometry x="250" y="440" width="120" height="80" as="geometry" />
        </mxCell>
        <mxCell id="-DMaai7r8MjLLovcOKQn-29" style="edgeStyle=none;rounded=0;orthogonalLoop=1;jettySize=auto;html=1;entryX=0;entryY=0.5;entryDx=0;entryDy=0;" parent="1" source="-DMaai7r8MjLLovcOKQn-15" target="-DMaai7r8MjLLovcOKQn-26" edge="1">
          <mxGeometry relative="1" as="geometry" />
        </mxCell>
        <mxCell id="-DMaai7r8MjLLovcOKQn-30" style="edgeStyle=none;rounded=0;orthogonalLoop=1;jettySize=auto;html=1;" parent="1" source="-DMaai7r8MjLLovcOKQn-15" target="-DMaai7r8MjLLovcOKQn-27" edge="1">
          <mxGeometry relative="1" as="geometry" />
        </mxCell>
        <mxCell id="-DMaai7r8MjLLovcOKQn-31" style="edgeStyle=none;rounded=0;orthogonalLoop=1;jettySize=auto;html=1;entryX=0;entryY=0.5;entryDx=0;entryDy=0;" parent="1" source="-DMaai7r8MjLLovcOKQn-15" target="-DMaai7r8MjLLovcOKQn-28" edge="1">
          <mxGeometry relative="1" as="geometry" />
        </mxCell>
        <mxCell id="-DMaai7r8MjLLovcOKQn-15" value="Create&lt;br&gt;Emitor" style="ellipse;whiteSpace=wrap;html=1;" parent="1" vertex="1">
          <mxGeometry x="416.25" y="80" width="97.5" height="50" as="geometry" />
        </mxCell>
        <mxCell id="-DMaai7r8MjLLovcOKQn-35" style="edgeStyle=none;rounded=0;orthogonalLoop=1;jettySize=auto;html=1;entryX=0;entryY=0.5;entryDx=0;entryDy=0;" parent="1" source="-DMaai7r8MjLLovcOKQn-16" target="-DMaai7r8MjLLovcOKQn-33" edge="1">
          <mxGeometry relative="1" as="geometry" />
        </mxCell>
        <mxCell id="-DMaai7r8MjLLovcOKQn-36" style="edgeStyle=none;rounded=0;orthogonalLoop=1;jettySize=auto;html=1;" parent="1" source="-DMaai7r8MjLLovcOKQn-16" target="-DMaai7r8MjLLovcOKQn-34" edge="1">
          <mxGeometry relative="1" as="geometry" />
        </mxCell>
        <mxCell id="-DMaai7r8MjLLovcOKQn-16" value="Create&lt;br&gt;Effects" style="ellipse;whiteSpace=wrap;html=1;" parent="1" vertex="1">
          <mxGeometry x="412.5" y="170" width="97.5" height="50" as="geometry" />
        </mxCell>
        <mxCell id="-DMaai7r8MjLLovcOKQn-24" style="edgeStyle=orthogonalEdgeStyle;rounded=0;orthogonalLoop=1;jettySize=auto;html=1;" parent="1" source="-DMaai7r8MjLLovcOKQn-20" target="-DMaai7r8MjLLovcOKQn-22" edge="1">
          <mxGeometry relative="1" as="geometry" />
        </mxCell>
        <mxCell id="-DMaai7r8MjLLovcOKQn-20" value="Euler Approximate&lt;br&gt;each frame" style="ellipse;whiteSpace=wrap;html=1;" parent="1" vertex="1">
          <mxGeometry x="452.5" y="275" width="97.5" height="50" as="geometry" />
        </mxCell>
        <mxCell id="-DMaai7r8MjLLovcOKQn-22" value="Update particle&amp;nbsp;&lt;br&gt;positions" style="ellipse;whiteSpace=wrap;html=1;" parent="1" vertex="1">
          <mxGeometry x="602.5" y="275" width="97.5" height="50" as="geometry" />
        </mxCell>
        <mxCell id="-DMaai7r8MjLLovcOKQn-26" value="Uniform" style="ellipse;whiteSpace=wrap;html=1;" parent="1" vertex="1">
          <mxGeometry x="570" y="50" width="60" height="30" as="geometry" />
        </mxCell>
        <mxCell id="-DMaai7r8MjLLovcOKQn-27" value="Directional" style="ellipse;whiteSpace=wrap;html=1;" parent="1" vertex="1">
          <mxGeometry x="570" y="90" width="70" height="30" as="geometry" />
        </mxCell>
        <mxCell id="-DMaai7r8MjLLovcOKQn-28" value="Explosion" style="ellipse;whiteSpace=wrap;html=1;" parent="1" vertex="1">
          <mxGeometry x="570" y="130" width="70" height="30" as="geometry" />
        </mxCell>
        <mxCell id="-DMaai7r8MjLLovcOKQn-32" style="edgeStyle=none;rounded=0;orthogonalLoop=1;jettySize=auto;html=1;exitX=0.25;exitY=0.1;exitDx=0;exitDy=0;exitPerimeter=0;" parent="1" source="-DMaai7r8MjLLovcOKQn-1" target="-DMaai7r8MjLLovcOKQn-1" edge="1">
          <mxGeometry relative="1" as="geometry" />
        </mxCell>
        <mxCell id="-DMaai7r8MjLLovcOKQn-33" value="Gravity Well" style="ellipse;whiteSpace=wrap;html=1;" parent="1" vertex="1">
          <mxGeometry x="570" y="170" width="70" height="30" as="geometry" />
        </mxCell>
        <mxCell id="-DMaai7r8MjLLovcOKQn-34" value="Wind" style="ellipse;whiteSpace=wrap;html=1;" parent="1" vertex="1">
          <mxGeometry x="570" y="210" width="70" height="30" as="geometry" />
        </mxCell>
        <mxCell id="-DMaai7r8MjLLovcOKQn-46" value="Create&lt;br&gt;Emitor" style="ellipse;whiteSpace=wrap;html=1;" parent="1" vertex="1">
          <mxGeometry x="416.25" y="80" width="97.5" height="50" as="geometry" />
        </mxCell>
        <mxCell id="-DMaai7r8MjLLovcOKQn-47" value="Uniform" style="ellipse;whiteSpace=wrap;html=1;" parent="1" vertex="1">
          <mxGeometry x="570" y="50" width="60" height="30" as="geometry" />
        </mxCell>
        <mxCell id="-DMaai7r8MjLLovcOKQn-48" value="Directional" style="ellipse;whiteSpace=wrap;html=1;" parent="1" vertex="1">
          <mxGeometry x="570" y="90" width="70" height="30" as="geometry" />
        </mxCell>
        <mxCell id="-DMaai7r8MjLLovcOKQn-49" value="Explosion" style="ellipse;whiteSpace=wrap;html=1;" parent="1" vertex="1">
          <mxGeometry x="570" y="130" width="70" height="30" as="geometry" />
        </mxCell>
        <mxCell id="-DMaai7r8MjLLovcOKQn-50" value="Delete&lt;br&gt;Effects" style="ellipse;whiteSpace=wrap;html=1;" parent="1" vertex="1">
          <mxGeometry x="452.5" y="360" width="97.5" height="50" as="geometry" />
        </mxCell>
        <mxCell id="-DMaai7r8MjLLovcOKQn-53" value="Delete&lt;br&gt;Emitor" style="ellipse;whiteSpace=wrap;html=1;" parent="1" vertex="1">
          <mxGeometry x="602.5" y="335" width="97.5" height="50" as="geometry" />
        </mxCell>
        <mxCell id="-DMaai7r8MjLLovcOKQn-61" value="Edit Emitor" style="ellipse;whiteSpace=wrap;html=1;" parent="1" vertex="1">
          <mxGeometry x="350" y="360" width="97.5" height="50" as="geometry" />
        </mxCell>
        <mxCell id="-DMaai7r8MjLLovcOKQn-62" value="Edit Effects" style="ellipse;whiteSpace=wrap;html=1;" parent="1" vertex="1">
          <mxGeometry x="720" y="335" width="97.5" height="50" as="geometry" />
        </mxCell>
        <mxCell id="-DMaai7r8MjLLovcOKQn-65" value="" style="whiteSpace=wrap;html=1;aspect=fixed;" parent="1" vertex="1">
          <mxGeometry x="210" y="870" width="690" height="690" as="geometry" />
        </mxCell>
        <mxCell id="-DMaai7r8MjLLovcOKQn-66" style="edgeStyle=none;rounded=0;orthogonalLoop=1;jettySize=auto;html=1;" parent="1" source="-DMaai7r8MjLLovcOKQn-69" target="-DMaai7r8MjLLovcOKQn-73" edge="1">
          <mxGeometry relative="1" as="geometry" />
        </mxCell>
        <mxCell id="-DMaai7r8MjLLovcOKQn-67" style="edgeStyle=none;rounded=0;orthogonalLoop=1;jettySize=auto;html=1;entryX=0;entryY=0.5;entryDx=0;entryDy=0;" parent="1" source="-DMaai7r8MjLLovcOKQn-69" target="-DMaai7r8MjLLovcOKQn-81" edge="1">
          <mxGeometry relative="1" as="geometry" />
        </mxCell>
        <mxCell id="-DMaai7r8MjLLovcOKQn-68" style="edgeStyle=none;rounded=0;orthogonalLoop=1;jettySize=auto;html=1;" parent="1" source="-DMaai7r8MjLLovcOKQn-69" target="-DMaai7r8MjLLovcOKQn-82" edge="1">
          <mxGeometry relative="1" as="geometry" />
        </mxCell>
        <mxCell id="-DMaai7r8MjLLovcOKQn-116" style="edgeStyle=none;rounded=0;orthogonalLoop=1;jettySize=auto;html=1;entryX=0;entryY=0.5;entryDx=0;entryDy=0;" parent="1" source="-DMaai7r8MjLLovcOKQn-69" target="-DMaai7r8MjLLovcOKQn-115" edge="1">
          <mxGeometry relative="1" as="geometry" />
        </mxCell>
        <mxCell id="-DMaai7r8MjLLovcOKQn-129" style="edgeStyle=none;rounded=0;orthogonalLoop=1;jettySize=auto;html=1;" parent="1" source="-DMaai7r8MjLLovcOKQn-69" target="-DMaai7r8MjLLovcOKQn-126" edge="1">
          <mxGeometry relative="1" as="geometry" />
        </mxCell>
        <mxCell id="-DMaai7r8MjLLovcOKQn-130" style="edgeStyle=none;rounded=0;orthogonalLoop=1;jettySize=auto;html=1;" parent="1" source="-DMaai7r8MjLLovcOKQn-69" target="-DMaai7r8MjLLovcOKQn-127" edge="1">
          <mxGeometry relative="1" as="geometry" />
        </mxCell>
        <mxCell id="-DMaai7r8MjLLovcOKQn-131" style="edgeStyle=none;rounded=0;orthogonalLoop=1;jettySize=auto;html=1;" parent="1" source="-DMaai7r8MjLLovcOKQn-69" target="-DMaai7r8MjLLovcOKQn-128" edge="1">
          <mxGeometry relative="1" as="geometry" />
        </mxCell>
        <mxCell id="-DMaai7r8MjLLovcOKQn-69" value="Client Code&lt;br&gt;" style="shape=umlActor;verticalLabelPosition=bottom;verticalAlign=top;html=1;outlineConnect=0;" parent="1" vertex="1">
          <mxGeometry x="140" y="1125" width="30" height="60" as="geometry" />
        </mxCell>
        <mxCell id="-DMaai7r8MjLLovcOKQn-70" value="&lt;b&gt;Particle System&lt;/b&gt;" style="text;html=1;strokeColor=none;fillColor=none;align=center;verticalAlign=middle;whiteSpace=wrap;rounded=0;" parent="1" vertex="1">
          <mxGeometry x="513.75" y="880" width="105" height="30" as="geometry" />
        </mxCell>
        <mxCell id="-DMaai7r8MjLLovcOKQn-73" value="Create&lt;br&gt;Particle System" style="ellipse;whiteSpace=wrap;html=1;" parent="1" vertex="1">
          <mxGeometry x="280" y="910" width="120" height="80" as="geometry" />
        </mxCell>
        <mxCell id="-DMaai7r8MjLLovcOKQn-81" value="Create&lt;br&gt;Emitor" style="ellipse;whiteSpace=wrap;html=1;" parent="1" vertex="1">
          <mxGeometry x="280" y="1000" width="120" height="80" as="geometry" />
        </mxCell>
        <mxCell id="-DMaai7r8MjLLovcOKQn-82" value="Fetch Current&lt;br&gt;Positions" style="ellipse;whiteSpace=wrap;html=1;" parent="1" vertex="1">
          <mxGeometry x="280" y="1090" width="120" height="80" as="geometry" />
        </mxCell>
        <mxCell id="-DMaai7r8MjLLovcOKQn-96" style="edgeStyle=none;rounded=0;orthogonalLoop=1;jettySize=auto;html=1;exitX=0.25;exitY=0.1;exitDx=0;exitDy=0;exitPerimeter=0;" parent="1" source="-DMaai7r8MjLLovcOKQn-69" target="-DMaai7r8MjLLovcOKQn-69" edge="1">
          <mxGeometry relative="1" as="geometry" />
        </mxCell>
        <mxCell id="-DMaai7r8MjLLovcOKQn-115" value="Update Particle System" style="ellipse;whiteSpace=wrap;html=1;" parent="1" vertex="1">
          <mxGeometry x="280" y="1180" width="120" height="80" as="geometry" />
        </mxCell>
        <mxCell id="-DMaai7r8MjLLovcOKQn-126" value="Create&lt;br&gt;Effect" style="ellipse;whiteSpace=wrap;html=1;" parent="1" vertex="1">
          <mxGeometry x="280" y="1270" width="120" height="80" as="geometry" />
        </mxCell>
        <mxCell id="-DMaai7r8MjLLovcOKQn-127" value="Delete&lt;br&gt;Emitor" style="ellipse;whiteSpace=wrap;html=1;" parent="1" vertex="1">
          <mxGeometry x="280" y="1360" width="120" height="80" as="geometry" />
        </mxCell>
        <mxCell id="-DMaai7r8MjLLovcOKQn-128" value="Delete&lt;br&gt;Effects" style="ellipse;whiteSpace=wrap;html=1;" parent="1" vertex="1">
          <mxGeometry x="280" y="1450" width="120" height="80" as="geometry" />
        </mxCell>
        <mxCell id="-DMaai7r8MjLLovcOKQn-137" style="edgeStyle=none;rounded=0;orthogonalLoop=1;jettySize=auto;html=1;" parent="1" source="-DMaai7r8MjLLovcOKQn-134" target="-DMaai7r8MjLLovcOKQn-136" edge="1">
          <mxGeometry relative="1" as="geometry" />
        </mxCell>
        <mxCell id="-DMaai7r8MjLLovcOKQn-134" value="Start" style="strokeWidth=2;html=1;shape=mxgraph.flowchart.start_2;whiteSpace=wrap;" parent="1" vertex="1">
          <mxGeometry x="490" y="1570" width="100" height="100" as="geometry" />
        </mxCell>
        <mxCell id="-DMaai7r8MjLLovcOKQn-140" style="edgeStyle=none;rounded=0;orthogonalLoop=1;jettySize=auto;html=1;entryX=0.5;entryY=0;entryDx=0;entryDy=0;" parent="1" source="-DMaai7r8MjLLovcOKQn-136" target="-DMaai7r8MjLLovcOKQn-156" edge="1">
          <mxGeometry relative="1" as="geometry">
            <mxPoint x="540" y="1830" as="targetPoint" />
          </mxGeometry>
        </mxCell>
        <mxCell id="-DMaai7r8MjLLovcOKQn-136" value="Create Particle System" style="rounded=1;whiteSpace=wrap;html=1;" parent="1" vertex="1">
          <mxGeometry x="470" y="1700" width="140" height="30" as="geometry" />
        </mxCell>
        <mxCell id="-DMaai7r8MjLLovcOKQn-148" style="edgeStyle=none;rounded=0;orthogonalLoop=1;jettySize=auto;html=1;entryX=0.5;entryY=0;entryDx=0;entryDy=0;" parent="1" source="-DMaai7r8MjLLovcOKQn-142" target="-DMaai7r8MjLLovcOKQn-143" edge="1">
          <mxGeometry relative="1" as="geometry" />
        </mxCell>
        <mxCell id="-DMaai7r8MjLLovcOKQn-142" value="Update Particle System" style="rounded=1;whiteSpace=wrap;html=1;" parent="1" vertex="1">
          <mxGeometry x="470" y="1930" width="140" height="30" as="geometry" />
        </mxCell>
        <mxCell id="-DMaai7r8MjLLovcOKQn-149" style="edgeStyle=none;rounded=0;orthogonalLoop=1;jettySize=auto;html=1;entryX=0.5;entryY=0;entryDx=0;entryDy=0;entryPerimeter=0;" parent="1" source="-DMaai7r8MjLLovcOKQn-143" target="-DMaai7r8MjLLovcOKQn-145" edge="1">
          <mxGeometry relative="1" as="geometry" />
        </mxCell>
        <mxCell id="-DMaai7r8MjLLovcOKQn-143" value="Render Particle System" style="rounded=1;whiteSpace=wrap;html=1;" parent="1" vertex="1">
          <mxGeometry x="470" y="1980" width="140" height="30" as="geometry" />
        </mxCell>
        <mxCell id="-DMaai7r8MjLLovcOKQn-147" style="edgeStyle=none;rounded=0;orthogonalLoop=1;jettySize=auto;html=1;" parent="1" source="-DMaai7r8MjLLovcOKQn-145" target="-DMaai7r8MjLLovcOKQn-146" edge="1">
          <mxGeometry relative="1" as="geometry" />
        </mxCell>
        <mxCell id="-DMaai7r8MjLLovcOKQn-160" value="YES" style="edgeLabel;html=1;align=center;verticalAlign=middle;resizable=0;points=[];" parent="-DMaai7r8MjLLovcOKQn-147" vertex="1" connectable="0">
          <mxGeometry x="-0.4" y="-2" relative="1" as="geometry">
            <mxPoint as="offset" />
          </mxGeometry>
        </mxCell>
        <mxCell id="-DMaai7r8MjLLovcOKQn-154" style="edgeStyle=orthogonalEdgeStyle;rounded=0;orthogonalLoop=1;jettySize=auto;html=1;" parent="1" source="-DMaai7r8MjLLovcOKQn-145" edge="1">
          <mxGeometry relative="1" as="geometry">
            <mxPoint x="540" y="1760" as="targetPoint" />
            <Array as="points">
              <mxPoint x="350" y="2060" />
              <mxPoint x="350" y="1760" />
            </Array>
          </mxGeometry>
        </mxCell>
        <mxCell id="-DMaai7r8MjLLovcOKQn-159" value="NO" style="edgeLabel;html=1;align=center;verticalAlign=middle;resizable=0;points=[];" parent="-DMaai7r8MjLLovcOKQn-154" vertex="1" connectable="0">
          <mxGeometry x="-0.8594" y="-2" relative="1" as="geometry">
            <mxPoint as="offset" />
          </mxGeometry>
        </mxCell>
        <mxCell id="-DMaai7r8MjLLovcOKQn-145" value="Quit?" style="strokeWidth=2;html=1;shape=mxgraph.flowchart.decision;whiteSpace=wrap;" parent="1" vertex="1">
          <mxGeometry x="500" y="2030" width="80" height="60" as="geometry" />
        </mxCell>
        <mxCell id="-DMaai7r8MjLLovcOKQn-146" value="END" style="strokeWidth=2;html=1;shape=mxgraph.flowchart.terminator;whiteSpace=wrap;" parent="1" vertex="1">
          <mxGeometry x="490" y="2140" width="100" height="60" as="geometry" />
        </mxCell>
        <mxCell id="-DMaai7r8MjLLovcOKQn-158" style="edgeStyle=orthogonalEdgeStyle;rounded=0;orthogonalLoop=1;jettySize=auto;html=1;" parent="1" source="-DMaai7r8MjLLovcOKQn-156" target="-DMaai7r8MjLLovcOKQn-157" edge="1">
          <mxGeometry relative="1" as="geometry" />
        </mxCell>
        <mxCell id="-DMaai7r8MjLLovcOKQn-162" value="YEs" style="edgeLabel;html=1;align=center;verticalAlign=middle;resizable=0;points=[];" parent="-DMaai7r8MjLLovcOKQn-158" vertex="1" connectable="0">
          <mxGeometry x="0.1852" y="-2" relative="1" as="geometry">
            <mxPoint x="-73" y="11" as="offset" />
          </mxGeometry>
        </mxCell>
        <mxCell id="-DMaai7r8MjLLovcOKQn-163" style="edgeStyle=orthogonalEdgeStyle;rounded=0;orthogonalLoop=1;jettySize=auto;html=1;" parent="1" source="-DMaai7r8MjLLovcOKQn-156" target="-DMaai7r8MjLLovcOKQn-142" edge="1">
          <mxGeometry relative="1" as="geometry" />
        </mxCell>
        <mxCell id="-DMaai7r8MjLLovcOKQn-156" value="Edit" style="rhombus;whiteSpace=wrap;html=1;" parent="1" vertex="1">
          <mxGeometry x="515" y="1780" width="50" height="50" as="geometry" />
        </mxCell>
        <mxCell id="-DMaai7r8MjLLovcOKQn-170" style="edgeStyle=none;rounded=0;orthogonalLoop=1;jettySize=auto;html=1;entryX=0.5;entryY=0;entryDx=0;entryDy=0;" parent="1" source="-DMaai7r8MjLLovcOKQn-157" target="-DMaai7r8MjLLovcOKQn-165" edge="1">
          <mxGeometry relative="1" as="geometry" />
        </mxCell>
        <mxCell id="-DMaai7r8MjLLovcOKQn-171" style="edgeStyle=none;rounded=0;orthogonalLoop=1;jettySize=auto;html=1;" parent="1" source="-DMaai7r8MjLLovcOKQn-157" target="-DMaai7r8MjLLovcOKQn-167" edge="1">
          <mxGeometry relative="1" as="geometry" />
        </mxCell>
        <mxCell id="-DMaai7r8MjLLovcOKQn-172" style="edgeStyle=none;rounded=0;orthogonalLoop=1;jettySize=auto;html=1;entryX=0.5;entryY=0;entryDx=0;entryDy=0;" parent="1" source="-DMaai7r8MjLLovcOKQn-157" target="-DMaai7r8MjLLovcOKQn-166" edge="1">
          <mxGeometry relative="1" as="geometry" />
        </mxCell>
        <mxCell id="-DMaai7r8MjLLovcOKQn-173" style="edgeStyle=none;rounded=0;orthogonalLoop=1;jettySize=auto;html=1;entryX=0.5;entryY=0;entryDx=0;entryDy=0;" parent="1" source="-DMaai7r8MjLLovcOKQn-157" target="-DMaai7r8MjLLovcOKQn-168" edge="1">
          <mxGeometry relative="1" as="geometry" />
        </mxCell>
        <mxCell id="-DMaai7r8MjLLovcOKQn-181" style="edgeStyle=none;rounded=0;orthogonalLoop=1;jettySize=auto;html=1;" parent="1" source="-DMaai7r8MjLLovcOKQn-157" edge="1">
          <mxGeometry relative="1" as="geometry">
            <mxPoint x="540" y="1860" as="targetPoint" />
          </mxGeometry>
        </mxCell>
        <mxCell id="-DMaai7r8MjLLovcOKQn-183" value="Stop edit" style="edgeLabel;html=1;align=center;verticalAlign=middle;resizable=0;points=[];" parent="-DMaai7r8MjLLovcOKQn-181" vertex="1" connectable="0">
          <mxGeometry x="0.2211" relative="1" as="geometry">
            <mxPoint as="offset" />
          </mxGeometry>
        </mxCell>
        <mxCell id="-DMaai7r8MjLLovcOKQn-157" value="What to do?" style="rhombus;whiteSpace=wrap;html=1;" parent="1" vertex="1">
          <mxGeometry x="740" y="1770" width="45" height="45" as="geometry" />
        </mxCell>
        <mxCell id="-DMaai7r8MjLLovcOKQn-164" value="No" style="text;html=1;align=center;verticalAlign=middle;resizable=0;points=[];autosize=1;strokeColor=none;fillColor=none;" parent="1" vertex="1">
          <mxGeometry x="518.75" y="1825" width="40" height="30" as="geometry" />
        </mxCell>
        <mxCell id="-DMaai7r8MjLLovcOKQn-175" style="edgeStyle=none;rounded=0;orthogonalLoop=1;jettySize=auto;html=1;entryX=0.5;entryY=0;entryDx=0;entryDy=0;" parent="1" source="-DMaai7r8MjLLovcOKQn-165" target="-DMaai7r8MjLLovcOKQn-174" edge="1">
          <mxGeometry relative="1" as="geometry" />
        </mxCell>
        <mxCell id="-DMaai7r8MjLLovcOKQn-165" value="Add Effect" style="rounded=1;whiteSpace=wrap;html=1;" parent="1" vertex="1">
          <mxGeometry x="650" y="1840" width="90" height="30" as="geometry" />
        </mxCell>
        <mxCell id="-DMaai7r8MjLLovcOKQn-177" style="edgeStyle=none;rounded=0;orthogonalLoop=1;jettySize=auto;html=1;entryX=0.5;entryY=0;entryDx=0;entryDy=0;" parent="1" source="-DMaai7r8MjLLovcOKQn-166" target="-DMaai7r8MjLLovcOKQn-174" edge="1">
          <mxGeometry relative="1" as="geometry" />
        </mxCell>
        <mxCell id="-DMaai7r8MjLLovcOKQn-166" value="Delete Effect" style="rounded=1;whiteSpace=wrap;html=1;" parent="1" vertex="1">
          <mxGeometry x="820" y="1840" width="80" height="30" as="geometry" />
        </mxCell>
        <mxCell id="-DMaai7r8MjLLovcOKQn-176" style="edgeStyle=none;rounded=0;orthogonalLoop=1;jettySize=auto;html=1;entryX=0.5;entryY=0;entryDx=0;entryDy=0;" parent="1" source="-DMaai7r8MjLLovcOKQn-167" target="-DMaai7r8MjLLovcOKQn-174" edge="1">
          <mxGeometry relative="1" as="geometry" />
        </mxCell>
        <mxCell id="-DMaai7r8MjLLovcOKQn-167" value="Add Emitor" style="rounded=1;whiteSpace=wrap;html=1;" parent="1" vertex="1">
          <mxGeometry x="740" y="1840" width="80" height="30" as="geometry" />
        </mxCell>
        <mxCell id="-DMaai7r8MjLLovcOKQn-178" style="edgeStyle=none;rounded=0;orthogonalLoop=1;jettySize=auto;html=1;entryX=0.5;entryY=0;entryDx=0;entryDy=0;" parent="1" source="-DMaai7r8MjLLovcOKQn-168" target="-DMaai7r8MjLLovcOKQn-174" edge="1">
          <mxGeometry relative="1" as="geometry" />
        </mxCell>
        <mxCell id="-DMaai7r8MjLLovcOKQn-168" value="Delete Emitor" style="rounded=1;whiteSpace=wrap;html=1;" parent="1" vertex="1">
          <mxGeometry x="900" y="1840" width="80" height="30" as="geometry" />
        </mxCell>
        <mxCell id="-DMaai7r8MjLLovcOKQn-180" style="edgeStyle=orthogonalEdgeStyle;rounded=0;orthogonalLoop=1;jettySize=auto;html=1;entryX=0.5;entryY=0;entryDx=0;entryDy=0;" parent="1" source="-DMaai7r8MjLLovcOKQn-174" target="-DMaai7r8MjLLovcOKQn-157" edge="1">
          <mxGeometry relative="1" as="geometry">
            <Array as="points">
              <mxPoint x="1030" y="1935" />
              <mxPoint x="1030" y="1750" />
              <mxPoint x="763" y="1750" />
            </Array>
          </mxGeometry>
        </mxCell>
        <mxCell id="-DMaai7r8MjLLovcOKQn-174" value="Merge" style="rhombus;whiteSpace=wrap;html=1;" parent="1" vertex="1">
          <mxGeometry x="770" y="1910" width="50" height="50" as="geometry" />
        </mxCell>
        <mxCell id="-DMaai7r8MjLLovcOKQn-193" style="edgeStyle=none;rounded=0;orthogonalLoop=1;jettySize=auto;html=1;strokeWidth=1;" parent="1" source="-DMaai7r8MjLLovcOKQn-187" target="-DMaai7r8MjLLovcOKQn-192" edge="1">
          <mxGeometry relative="1" as="geometry" />
        </mxCell>
        <mxCell id="-DMaai7r8MjLLovcOKQn-187" value="Client Code" style="text;html=1;align=center;verticalAlign=middle;resizable=0;points=[];autosize=1;strokeColor=none;fillColor=none;" parent="1" vertex="1">
          <mxGeometry x="250" y="2315" width="90" height="30" as="geometry" />
        </mxCell>
        <mxCell id="-DMaai7r8MjLLovcOKQn-188" value="Particle System" style="text;html=1;align=center;verticalAlign=middle;resizable=0;points=[];autosize=1;strokeColor=none;fillColor=none;" parent="1" vertex="1">
          <mxGeometry x="470" y="2315" width="110" height="30" as="geometry" />
        </mxCell>
        <mxCell id="-DMaai7r8MjLLovcOKQn-189" value="" style="endArrow=none;html=1;rounded=0;strokeWidth=5;" parent="1" edge="1">
          <mxGeometry width="50" height="50" relative="1" as="geometry">
            <mxPoint x="400" y="2820" as="sourcePoint" />
            <mxPoint x="400" y="2320" as="targetPoint" />
          </mxGeometry>
        </mxCell>
        <mxCell id="-DMaai7r8MjLLovcOKQn-192" value="Create Particle System" style="rounded=1;whiteSpace=wrap;html=1;" parent="1" vertex="1">
          <mxGeometry x="450" y="2360" width="140" height="30" as="geometry" />
        </mxCell>
        <mxCell id="TMPoqhxUjDYgHP8CK_e2-43" style="edgeStyle=orthogonalEdgeStyle;rounded=0;orthogonalLoop=1;jettySize=auto;html=1;" edge="1" parent="1" source="TMPoqhxUjDYgHP8CK_e2-2" target="TMPoqhxUjDYgHP8CK_e2-14">
          <mxGeometry relative="1" as="geometry" />
        </mxCell>
        <mxCell id="TMPoqhxUjDYgHP8CK_e2-45" style="edgeStyle=orthogonalEdgeStyle;rounded=0;orthogonalLoop=1;jettySize=auto;html=1;entryX=0.433;entryY=0.013;entryDx=0;entryDy=0;entryPerimeter=0;" edge="1" parent="1" source="TMPoqhxUjDYgHP8CK_e2-2" target="TMPoqhxUjDYgHP8CK_e2-6">
          <mxGeometry relative="1" as="geometry" />
        </mxCell>
        <mxCell id="TMPoqhxUjDYgHP8CK_e2-46" style="edgeStyle=orthogonalEdgeStyle;rounded=0;orthogonalLoop=1;jettySize=auto;html=1;" edge="1" parent="1" source="TMPoqhxUjDYgHP8CK_e2-2" target="TMPoqhxUjDYgHP8CK_e2-10">
          <mxGeometry relative="1" as="geometry" />
        </mxCell>
        <mxCell id="TMPoqhxUjDYgHP8CK_e2-2" value="ParticleSystem" style="swimlane;fontStyle=1;align=center;verticalAlign=top;childLayout=stackLayout;horizontal=1;startSize=26;horizontalStack=0;resizeParent=1;resizeParentMax=0;resizeLast=0;collapsible=1;marginBottom=0;" vertex="1" parent="1">
          <mxGeometry x="505" y="3110" width="380" height="124" as="geometry" />
        </mxCell>
        <mxCell id="TMPoqhxUjDYgHP8CK_e2-3" value="-emitor: vector&lt;emitor&gt;&#xa;-effect: vector&lt;effect&gt;&#xa;-particles: vector&lt;particle&gt;" style="text;strokeColor=none;fillColor=none;align=left;verticalAlign=top;spacingLeft=4;spacingRight=4;overflow=hidden;rotatable=0;points=[[0,0.5],[1,0.5]];portConstraint=eastwest;" vertex="1" parent="TMPoqhxUjDYgHP8CK_e2-2">
          <mxGeometry y="26" width="380" height="64" as="geometry" />
        </mxCell>
        <mxCell id="TMPoqhxUjDYgHP8CK_e2-4" value="" style="line;strokeWidth=1;fillColor=none;align=left;verticalAlign=middle;spacingTop=-1;spacingLeft=3;spacingRight=3;rotatable=0;labelPosition=right;points=[];portConstraint=eastwest;strokeColor=inherit;" vertex="1" parent="TMPoqhxUjDYgHP8CK_e2-2">
          <mxGeometry y="90" width="380" height="8" as="geometry" />
        </mxCell>
        <mxCell id="TMPoqhxUjDYgHP8CK_e2-5" value="+ method(type): type" style="text;strokeColor=none;fillColor=none;align=left;verticalAlign=top;spacingLeft=4;spacingRight=4;overflow=hidden;rotatable=0;points=[[0,0.5],[1,0.5]];portConstraint=eastwest;" vertex="1" parent="TMPoqhxUjDYgHP8CK_e2-2">
          <mxGeometry y="98" width="380" height="26" as="geometry" />
        </mxCell>
        <mxCell id="TMPoqhxUjDYgHP8CK_e2-6" value="Particle" style="swimlane;fontStyle=1;align=center;verticalAlign=top;childLayout=stackLayout;horizontal=1;startSize=26;horizontalStack=0;resizeParent=1;resizeParentMax=0;resizeLast=0;collapsible=1;marginBottom=0;" vertex="1" parent="1">
          <mxGeometry x="630" y="3370" width="150" height="150" as="geometry" />
        </mxCell>
        <mxCell id="TMPoqhxUjDYgHP8CK_e2-7" value="-velocity: vec2()&#xa;-position: vec2&#xa;-color: vec4" style="text;strokeColor=none;fillColor=none;align=left;verticalAlign=top;spacingLeft=4;spacingRight=4;overflow=hidden;rotatable=0;points=[[0,0.5],[1,0.5]];portConstraint=eastwest;" vertex="1" parent="TMPoqhxUjDYgHP8CK_e2-6">
          <mxGeometry y="26" width="150" height="64" as="geometry" />
        </mxCell>
        <mxCell id="TMPoqhxUjDYgHP8CK_e2-8" value="" style="line;strokeWidth=1;fillColor=none;align=left;verticalAlign=middle;spacingTop=-1;spacingLeft=3;spacingRight=3;rotatable=0;labelPosition=right;points=[];portConstraint=eastwest;strokeColor=inherit;" vertex="1" parent="TMPoqhxUjDYgHP8CK_e2-6">
          <mxGeometry y="90" width="150" height="8" as="geometry" />
        </mxCell>
        <mxCell id="TMPoqhxUjDYgHP8CK_e2-9" value="+getPosition()&#xa;+getVelocity" style="text;strokeColor=none;fillColor=none;align=left;verticalAlign=top;spacingLeft=4;spacingRight=4;overflow=hidden;rotatable=0;points=[[0,0.5],[1,0.5]];portConstraint=eastwest;" vertex="1" parent="TMPoqhxUjDYgHP8CK_e2-6">
          <mxGeometry y="98" width="150" height="52" as="geometry" />
        </mxCell>
        <mxCell id="TMPoqhxUjDYgHP8CK_e2-41" style="edgeStyle=orthogonalEdgeStyle;rounded=0;orthogonalLoop=1;jettySize=auto;html=1;" edge="1" parent="1" source="TMPoqhxUjDYgHP8CK_e2-10" target="TMPoqhxUjDYgHP8CK_e2-30">
          <mxGeometry relative="1" as="geometry" />
        </mxCell>
        <mxCell id="TMPoqhxUjDYgHP8CK_e2-42" style="edgeStyle=orthogonalEdgeStyle;rounded=0;orthogonalLoop=1;jettySize=auto;html=1;" edge="1" parent="1" source="TMPoqhxUjDYgHP8CK_e2-10" target="TMPoqhxUjDYgHP8CK_e2-34">
          <mxGeometry relative="1" as="geometry" />
        </mxCell>
        <mxCell id="TMPoqhxUjDYgHP8CK_e2-10" value="Emitor" style="swimlane;fontStyle=1;align=center;verticalAlign=top;childLayout=stackLayout;horizontal=1;startSize=26;horizontalStack=0;resizeParent=1;resizeParentMax=0;resizeLast=0;collapsible=1;marginBottom=0;" vertex="1" parent="1">
          <mxGeometry x="850" y="3350" width="440" height="250" as="geometry" />
        </mxCell>
        <mxCell id="TMPoqhxUjDYgHP8CK_e2-11" value="+Directopn: vec2 : &#xa;&#xa;+position : vec2&#xa;+force: float" style="text;strokeColor=none;fillColor=none;align=left;verticalAlign=top;spacingLeft=4;spacingRight=4;overflow=hidden;rotatable=0;points=[[0,0.5],[1,0.5]];portConstraint=eastwest;" vertex="1" parent="TMPoqhxUjDYgHP8CK_e2-10">
          <mxGeometry y="26" width="440" height="64" as="geometry" />
        </mxCell>
        <mxCell id="TMPoqhxUjDYgHP8CK_e2-12" value="" style="line;strokeWidth=1;fillColor=none;align=left;verticalAlign=middle;spacingTop=-1;spacingLeft=3;spacingRight=3;rotatable=0;labelPosition=right;points=[];portConstraint=eastwest;strokeColor=inherit;" vertex="1" parent="TMPoqhxUjDYgHP8CK_e2-10">
          <mxGeometry y="90" width="440" height="8" as="geometry" />
        </mxCell>
        <mxCell id="TMPoqhxUjDYgHP8CK_e2-13" value="+get_applyed_force() : vec2&#xa;" style="text;strokeColor=none;fillColor=none;align=left;verticalAlign=top;spacingLeft=4;spacingRight=4;overflow=hidden;rotatable=0;points=[[0,0.5],[1,0.5]];portConstraint=eastwest;" vertex="1" parent="TMPoqhxUjDYgHP8CK_e2-10">
          <mxGeometry y="98" width="440" height="152" as="geometry" />
        </mxCell>
        <mxCell id="TMPoqhxUjDYgHP8CK_e2-39" style="edgeStyle=orthogonalEdgeStyle;rounded=0;orthogonalLoop=1;jettySize=auto;html=1;entryX=0.5;entryY=0;entryDx=0;entryDy=0;" edge="1" parent="1" source="TMPoqhxUjDYgHP8CK_e2-14" target="TMPoqhxUjDYgHP8CK_e2-18">
          <mxGeometry relative="1" as="geometry" />
        </mxCell>
        <mxCell id="TMPoqhxUjDYgHP8CK_e2-40" style="edgeStyle=orthogonalEdgeStyle;rounded=0;orthogonalLoop=1;jettySize=auto;html=1;" edge="1" parent="1" source="TMPoqhxUjDYgHP8CK_e2-14" target="TMPoqhxUjDYgHP8CK_e2-26">
          <mxGeometry relative="1" as="geometry" />
        </mxCell>
        <mxCell id="TMPoqhxUjDYgHP8CK_e2-14" value="Effect" style="swimlane;fontStyle=1;align=center;verticalAlign=top;childLayout=stackLayout;horizontal=1;startSize=26;horizontalStack=0;resizeParent=1;resizeParentMax=0;resizeLast=0;collapsible=1;marginBottom=0;" vertex="1" parent="1">
          <mxGeometry x="170" y="3350" width="380" height="250" as="geometry" />
        </mxCell>
        <mxCell id="TMPoqhxUjDYgHP8CK_e2-15" value="Effect() : " style="text;strokeColor=none;fillColor=none;align=left;verticalAlign=top;spacingLeft=4;spacingRight=4;overflow=hidden;rotatable=0;points=[[0,0.5],[1,0.5]];portConstraint=eastwest;" vertex="1" parent="TMPoqhxUjDYgHP8CK_e2-14">
          <mxGeometry y="26" width="380" height="64" as="geometry" />
        </mxCell>
        <mxCell id="TMPoqhxUjDYgHP8CK_e2-16" value="" style="line;strokeWidth=1;fillColor=none;align=left;verticalAlign=middle;spacingTop=-1;spacingLeft=3;spacingRight=3;rotatable=0;labelPosition=right;points=[];portConstraint=eastwest;strokeColor=inherit;" vertex="1" parent="TMPoqhxUjDYgHP8CK_e2-14">
          <mxGeometry y="90" width="380" height="8" as="geometry" />
        </mxCell>
        <mxCell id="TMPoqhxUjDYgHP8CK_e2-17" value="+get_applyed_force() : vec2&#xa;" style="text;strokeColor=none;fillColor=none;align=left;verticalAlign=top;spacingLeft=4;spacingRight=4;overflow=hidden;rotatable=0;points=[[0,0.5],[1,0.5]];portConstraint=eastwest;" vertex="1" parent="TMPoqhxUjDYgHP8CK_e2-14">
          <mxGeometry y="98" width="380" height="152" as="geometry" />
        </mxCell>
        <mxCell id="TMPoqhxUjDYgHP8CK_e2-18" value="Gravity_Well" style="swimlane;fontStyle=1;align=center;verticalAlign=top;childLayout=stackLayout;horizontal=1;startSize=26;horizontalStack=0;resizeParent=1;resizeParentMax=0;resizeLast=0;collapsible=1;marginBottom=0;" vertex="1" parent="1">
          <mxGeometry x="140" y="3680" width="200" height="250" as="geometry" />
        </mxCell>
        <mxCell id="TMPoqhxUjDYgHP8CK_e2-19" value="Effect() : &#xa;&#xa;+position : vec2&#xa;+force: float" style="text;strokeColor=none;fillColor=none;align=left;verticalAlign=top;spacingLeft=4;spacingRight=4;overflow=hidden;rotatable=0;points=[[0,0.5],[1,0.5]];portConstraint=eastwest;" vertex="1" parent="TMPoqhxUjDYgHP8CK_e2-18">
          <mxGeometry y="26" width="200" height="64" as="geometry" />
        </mxCell>
        <mxCell id="TMPoqhxUjDYgHP8CK_e2-20" value="" style="line;strokeWidth=1;fillColor=none;align=left;verticalAlign=middle;spacingTop=-1;spacingLeft=3;spacingRight=3;rotatable=0;labelPosition=right;points=[];portConstraint=eastwest;strokeColor=inherit;" vertex="1" parent="TMPoqhxUjDYgHP8CK_e2-18">
          <mxGeometry y="90" width="200" height="8" as="geometry" />
        </mxCell>
        <mxCell id="TMPoqhxUjDYgHP8CK_e2-21" value="+get_applyed_force() : vec2&#xa;" style="text;strokeColor=none;fillColor=none;align=left;verticalAlign=top;spacingLeft=4;spacingRight=4;overflow=hidden;rotatable=0;points=[[0,0.5],[1,0.5]];portConstraint=eastwest;" vertex="1" parent="TMPoqhxUjDYgHP8CK_e2-18">
          <mxGeometry y="98" width="200" height="152" as="geometry" />
        </mxCell>
        <mxCell id="TMPoqhxUjDYgHP8CK_e2-26" value="Wind" style="swimlane;fontStyle=1;align=center;verticalAlign=top;childLayout=stackLayout;horizontal=1;startSize=26;horizontalStack=0;resizeParent=1;resizeParentMax=0;resizeLast=0;collapsible=1;marginBottom=0;" vertex="1" parent="1">
          <mxGeometry x="370" y="3680" width="200" height="250" as="geometry" />
        </mxCell>
        <mxCell id="TMPoqhxUjDYgHP8CK_e2-27" value="Effect() : &#xa;&#xa;+position : vec2&#xa;+force: float" style="text;strokeColor=none;fillColor=none;align=left;verticalAlign=top;spacingLeft=4;spacingRight=4;overflow=hidden;rotatable=0;points=[[0,0.5],[1,0.5]];portConstraint=eastwest;" vertex="1" parent="TMPoqhxUjDYgHP8CK_e2-26">
          <mxGeometry y="26" width="200" height="64" as="geometry" />
        </mxCell>
        <mxCell id="TMPoqhxUjDYgHP8CK_e2-28" value="" style="line;strokeWidth=1;fillColor=none;align=left;verticalAlign=middle;spacingTop=-1;spacingLeft=3;spacingRight=3;rotatable=0;labelPosition=right;points=[];portConstraint=eastwest;strokeColor=inherit;" vertex="1" parent="TMPoqhxUjDYgHP8CK_e2-26">
          <mxGeometry y="90" width="200" height="8" as="geometry" />
        </mxCell>
        <mxCell id="TMPoqhxUjDYgHP8CK_e2-29" value="+get_applyed_force() : vec2&#xa;" style="text;strokeColor=none;fillColor=none;align=left;verticalAlign=top;spacingLeft=4;spacingRight=4;overflow=hidden;rotatable=0;points=[[0,0.5],[1,0.5]];portConstraint=eastwest;" vertex="1" parent="TMPoqhxUjDYgHP8CK_e2-26">
          <mxGeometry y="98" width="200" height="152" as="geometry" />
        </mxCell>
        <mxCell id="TMPoqhxUjDYgHP8CK_e2-30" value="Directional" style="swimlane;fontStyle=1;align=center;verticalAlign=top;childLayout=stackLayout;horizontal=1;startSize=26;horizontalStack=0;resizeParent=1;resizeParentMax=0;resizeLast=0;collapsible=1;marginBottom=0;" vertex="1" parent="1">
          <mxGeometry x="840" y="3680" width="200" height="250" as="geometry" />
        </mxCell>
        <mxCell id="TMPoqhxUjDYgHP8CK_e2-31" value="Effect() : &#xa;&#xa;+position : vec2&#xa;+force: float" style="text;strokeColor=none;fillColor=none;align=left;verticalAlign=top;spacingLeft=4;spacingRight=4;overflow=hidden;rotatable=0;points=[[0,0.5],[1,0.5]];portConstraint=eastwest;" vertex="1" parent="TMPoqhxUjDYgHP8CK_e2-30">
          <mxGeometry y="26" width="200" height="64" as="geometry" />
        </mxCell>
        <mxCell id="TMPoqhxUjDYgHP8CK_e2-32" value="" style="line;strokeWidth=1;fillColor=none;align=left;verticalAlign=middle;spacingTop=-1;spacingLeft=3;spacingRight=3;rotatable=0;labelPosition=right;points=[];portConstraint=eastwest;strokeColor=inherit;" vertex="1" parent="TMPoqhxUjDYgHP8CK_e2-30">
          <mxGeometry y="90" width="200" height="8" as="geometry" />
        </mxCell>
        <mxCell id="TMPoqhxUjDYgHP8CK_e2-33" value="+get_applyed_force() : vec2&#xa;" style="text;strokeColor=none;fillColor=none;align=left;verticalAlign=top;spacingLeft=4;spacingRight=4;overflow=hidden;rotatable=0;points=[[0,0.5],[1,0.5]];portConstraint=eastwest;" vertex="1" parent="TMPoqhxUjDYgHP8CK_e2-30">
          <mxGeometry y="98" width="200" height="152" as="geometry" />
        </mxCell>
        <mxCell id="TMPoqhxUjDYgHP8CK_e2-34" value="Uniform" style="swimlane;fontStyle=1;align=center;verticalAlign=top;childLayout=stackLayout;horizontal=1;startSize=26;horizontalStack=0;resizeParent=1;resizeParentMax=0;resizeLast=0;collapsible=1;marginBottom=0;" vertex="1" parent="1">
          <mxGeometry x="1075" y="3680" width="200" height="250" as="geometry" />
        </mxCell>
        <mxCell id="TMPoqhxUjDYgHP8CK_e2-35" value="Effect() : &#xa;&#xa;+position : vec2&#xa;+force: float" style="text;strokeColor=none;fillColor=none;align=left;verticalAlign=top;spacingLeft=4;spacingRight=4;overflow=hidden;rotatable=0;points=[[0,0.5],[1,0.5]];portConstraint=eastwest;" vertex="1" parent="TMPoqhxUjDYgHP8CK_e2-34">
          <mxGeometry y="26" width="200" height="64" as="geometry" />
        </mxCell>
        <mxCell id="TMPoqhxUjDYgHP8CK_e2-36" value="" style="line;strokeWidth=1;fillColor=none;align=left;verticalAlign=middle;spacingTop=-1;spacingLeft=3;spacingRight=3;rotatable=0;labelPosition=right;points=[];portConstraint=eastwest;strokeColor=inherit;" vertex="1" parent="TMPoqhxUjDYgHP8CK_e2-34">
          <mxGeometry y="90" width="200" height="8" as="geometry" />
        </mxCell>
        <mxCell id="TMPoqhxUjDYgHP8CK_e2-37" value="+get_applyed_force() : vec2&#xa;" style="text;strokeColor=none;fillColor=none;align=left;verticalAlign=top;spacingLeft=4;spacingRight=4;overflow=hidden;rotatable=0;points=[[0,0.5],[1,0.5]];portConstraint=eastwest;" vertex="1" parent="TMPoqhxUjDYgHP8CK_e2-34">
          <mxGeometry y="98" width="200" height="152" as="geometry" />
        </mxCell>
      </root>
    </mxGraphModel>
  </diagram>
</mxfile>
